<svg width="42" height="43" viewBox="0 0 42 43" fill="none" xmlns="http://www.w3.org/2000/svg">
<path d="M37.7161 11.4759C38.5134 14.6118 38.5135 21.1581 38.5135 21.1581C38.5135 21.1581 38.5134 27.7044 37.7161 30.8403C37.273 32.5737 35.9766 33.9375 34.3349 34.3985C31.3531 35.2362 21.0663 35.2362 21.0663 35.2362C21.0663 35.2362 10.7847 35.2362 7.79773 34.3985C6.14898 33.9304 4.8544 32.5684 4.41648 30.8403C3.61914 27.7044 3.61914 21.1581 3.61914 21.1581C3.61914 21.1581 3.61914 14.6118 4.41648 11.4759C4.85963 9.74259 6.15596 8.37878 7.79773 7.91772C10.7847 7.08008 21.0663 7.08008 21.0663 7.08008C21.0663 7.08008 31.3531 7.08008 34.3349 7.91772C35.9836 8.38582 37.2782 9.74787 37.7161 11.4759ZM17.5769 27.3173L28.0452 21.1581L17.5769 14.999V27.3173Z" fill="white"/>
</svg>
