<svg width="42" height="43" viewBox="0 0 42 43" fill="none" xmlns="http://www.w3.org/2000/svg">
<path d="M19.7078 33.4731V32.0087C17.447 31.679 15.3797 30.5389 13.8845 28.7971C12.3893 27.0553 11.5664 24.8285 11.5664 22.5246V15.6818C11.5664 14.4237 11.8121 13.178 12.2894 12.0157C12.7668 10.8534 13.4664 9.79729 14.3484 8.90771C15.2304 8.01813 16.2775 7.31247 17.4299 6.83104C18.5822 6.3496 19.8174 6.10181 21.0647 6.10181C22.312 6.10181 23.5471 6.3496 24.6995 6.83104C25.8519 7.31247 26.899 8.01813 27.781 8.90771C28.663 9.79729 29.3626 10.8534 29.84 12.0157C30.3173 13.178 30.563 14.4237 30.563 15.6818V22.5246C30.563 24.8285 29.74 27.0553 28.2449 28.7971C26.7497 30.5389 24.6824 31.679 22.4216 32.0087V33.4731H27.8492V36.2102H14.2802V33.4731H19.7078ZM21.0647 17.0503C20.7048 17.0503 20.3597 16.9061 20.1052 16.6495C19.8508 16.3928 19.7078 16.0447 19.7078 15.6818C19.7078 15.3188 19.8508 14.9707 20.1052 14.714C20.3597 14.4574 20.7048 14.3132 21.0647 14.3132C21.4246 14.3132 21.7697 14.4574 22.0242 14.714C22.2786 14.9707 22.4216 15.3188 22.4216 15.6818C22.4216 16.0447 22.2786 16.3928 22.0242 16.6495C21.7697 16.9061 21.4246 17.0503 21.0647 17.0503ZM21.0647 19.7875C22.1443 19.7875 23.1797 19.3549 23.9431 18.5849C24.7065 17.815 25.1354 16.7707 25.1354 15.6818C25.1354 14.5929 24.7065 13.5486 23.9431 12.7786C23.1797 12.0086 22.1443 11.5761 21.0647 11.5761C19.9851 11.5761 18.9497 12.0086 18.1863 12.7786C17.4229 13.5486 16.994 14.5929 16.994 15.6818C16.994 16.7707 17.4229 17.815 18.1863 18.5849C18.9497 19.3549 19.9851 19.7875 21.0647 19.7875Z" fill="white"/>
</svg>
