<svg width="42" height="43" viewBox="0 0 42 43" fill="none" xmlns="http://www.w3.org/2000/svg">
<g clip-path="url(#clip0_36_1615)">
<path d="M32.6913 19.8006C32.6909 20.0458 32.594 20.2808 32.4219 20.454C32.2499 20.6272 32.0167 20.7245 31.7736 20.7245H29.2228V22.3752H31.7736C31.8971 22.3697 32.0205 22.3896 32.1362 22.4335C32.252 22.4774 32.3577 22.5445 32.447 22.6308C32.5363 22.717 32.6074 22.8206 32.656 22.9353C32.7045 23.05 32.7296 23.1734 32.7296 23.2982C32.7296 23.4229 32.7045 23.5463 32.656 23.661C32.6074 23.7757 32.5363 23.8793 32.447 23.9655C32.3577 24.0518 32.252 24.1189 32.1362 24.1628C32.0205 24.2067 31.8971 24.2266 31.7736 24.2212H28.3069C28.0653 24.2193 27.8342 24.1214 27.6637 23.9488C27.4932 23.7762 27.397 23.5427 27.3961 23.299V16.3022C27.3961 15.7972 27.8061 15.3784 28.3121 15.3784H31.7806C32.0235 15.3791 32.2562 15.4771 32.4275 15.6508C32.5988 15.8246 32.6946 16.0599 32.694 16.3049C32.6933 16.5499 32.5961 16.7846 32.4238 16.9574C32.2515 17.1302 32.0183 17.2268 31.7754 17.2261H29.2246V18.8768H31.7754C32.2831 18.8768 32.6931 19.2938 32.6931 19.8006H32.6913ZM25.5415 24.1736C25.4478 24.2035 25.3501 24.2183 25.2519 24.2176C25.1083 24.2208 24.966 24.1893 24.837 24.1256C24.708 24.0619 24.596 23.9679 24.5104 23.8516L20.9581 18.9876V23.299C20.9407 23.5313 20.8369 23.7484 20.6675 23.9067C20.4981 24.0651 20.2757 24.1531 20.0448 24.1531C19.8138 24.1531 19.5914 24.0651 19.422 23.9067C19.2527 23.7484 19.1489 23.5313 19.1314 23.299V16.3022C19.1309 16.0589 19.2262 15.8254 19.3963 15.6528C19.5664 15.4803 19.7974 15.3828 20.0387 15.3819C20.3213 15.3819 20.583 15.5332 20.7575 15.7532L24.3376 20.6365V16.3022C24.3376 15.7972 24.7476 15.3784 25.2536 15.3784C25.7543 15.3784 26.1696 15.7972 26.1696 16.3022V23.299C26.1693 23.4929 26.1085 23.6818 25.9958 23.8388C25.883 23.9958 25.724 24.113 25.5415 24.1736ZM16.9051 24.2212C16.6633 24.2198 16.4317 24.1221 16.2608 23.9494C16.09 23.7767 15.9936 23.543 15.9927 23.299V16.3022C15.9927 15.7972 16.4044 15.3784 16.9086 15.3784C17.4129 15.3784 17.8229 15.7972 17.8229 16.3022V23.299C17.8215 23.5438 17.7242 23.778 17.5523 23.9508C17.3804 24.1235 17.1478 24.2207 16.9051 24.2212ZM14.2357 24.2212H10.769C10.5268 24.2198 10.2949 24.1222 10.1234 23.9496C9.95199 23.7771 9.85484 23.5433 9.85301 23.299V16.3022C9.87303 16.0711 9.9782 15.856 10.1478 15.6993C10.3173 15.5425 10.539 15.4556 10.769 15.4556C10.999 15.4556 11.2206 15.5425 11.3902 15.6993C11.5598 15.856 11.6649 16.0711 11.685 16.3022V22.3734H14.2392C14.4822 22.3734 14.7151 22.4707 14.8869 22.644C15.0587 22.8173 15.1552 23.0522 15.1552 23.2973C15.1552 23.5423 15.0587 23.7773 14.8869 23.9506C14.7151 24.1238 14.4822 24.2212 14.2392 24.2212H14.2357ZM21.0663 5.25098C11.4477 5.25098 3.61914 11.6618 3.61914 19.5367C3.61914 26.5933 9.82684 32.5043 18.2102 33.627C18.7772 33.7467 19.5519 34.0054 19.7473 34.4928C19.9218 34.9328 19.8624 35.6156 19.8031 36.0766L19.5641 37.5724C19.4995 38.0124 19.2152 39.3111 21.089 38.5174C22.9663 37.7273 31.1455 32.5378 34.8094 28.2897C37.3148 25.5181 38.5135 22.6814 38.5135 19.5367C38.5135 11.6618 30.6832 5.25098 21.0663 5.25098Z" fill="white"/>
</g>
<defs>
<clipPath id="clip0_36_1615">
<rect width="41.8732" height="42.2341" fill="white" transform="translate(0.129883 0.724854)"/>
</clipPath>
</defs>
</svg>
