<?xml version="1.0" encoding="utf-8"?>
<!-- Generator: $$$/GeneralStr/196=Adobe Illustrator 27.6.0, SVG Export Plug-In . SVG Version: 6.00 Build 0)  -->
<svg version="1.1" id="圖層_1" xmlns="http://www.w3.org/2000/svg" xmlns:xlink="http://www.w3.org/1999/xlink" x="0px" y="0px"
	 viewBox="0 0 22 22" style="enable-background:new 0 0 22 22;" xml:space="preserve">
<style type="text/css">
	.st0{fill:#FFFFFF;}
</style>
<path class="st0" d="M17.8,9.7c-0.4-0.5-1.1-0.5-1.5-0.1L12.1,13V1.6c0-0.5-0.5-0.9-1.1-0.9S9.9,1.1,9.9,1.6V13L5.8,9.5
	C5.3,9.1,4.6,9.2,4.2,9.7c-0.4,0.5-0.3,1.1,0.1,1.5l6.6,5.6l6.6-5.6C18.1,10.8,18.1,10.1,17.8,9.7z"/>
<path class="st0" d="M17.5,20.7h-13c-0.6,0-1.1-0.5-1.1-1.1s0.5-1.1,1.1-1.1h13c0.6,0,1.1,0.5,1.1,1.1S18.1,20.7,17.5,20.7z"/>
</svg>
