<svg width="97" height="99" viewBox="0 0 97 99" fill="none" xmlns="http://www.w3.org/2000/svg">
<path d="M86.9098 27.4208C88.7532 34.6708 88.7532 49.8053 88.7532 49.8053C88.7532 49.8053 88.7532 64.9399 86.9098 72.1899C85.8853 76.1973 82.8883 79.3503 79.0926 80.4162C72.1991 82.3528 48.4167 82.3528 48.4167 82.3528C48.4167 82.3528 24.6463 82.3528 17.7407 80.4162C13.9289 79.334 10.9359 76.1851 9.92346 72.1899C8.08008 64.9399 8.08008 49.8053 8.08008 49.8053C8.08008 49.8053 8.08008 34.6708 9.92346 27.4208C10.948 23.4134 13.945 20.2604 17.7407 19.1945C24.6463 17.2579 48.4167 17.2579 48.4167 17.2579C48.4167 17.2579 72.1991 17.2579 79.0926 19.1945C82.9044 20.2767 85.8974 23.4256 86.9098 27.4208V27.4208ZM40.3493 64.0449L64.5513 49.8053L40.3493 35.5658V64.0449Z" fill="white"/>
</svg>
