<svg width="128" height="129" viewBox="0 0 128 129" fill="none" xmlns="http://www.w3.org/2000/svg">
<path d="M114.333 35.4501C116.752 44.9617 116.752 64.8175 116.752 64.8175C116.752 64.8175 116.752 84.6734 114.333 94.185C112.989 99.4425 109.057 103.579 104.077 104.978C95.0333 107.518 63.8318 107.518 63.8318 107.518C63.8318 107.518 32.6462 107.518 23.5864 104.978C18.5855 103.558 14.6588 99.4265 13.3305 94.185C10.9121 84.6734 10.9121 64.8175 10.9121 64.8175C10.9121 64.8175 10.9121 44.9617 13.3305 35.4501C14.6747 30.1926 18.6066 26.0559 23.5864 24.6575C32.6462 22.1168 63.8318 22.1168 63.8318 22.1168C63.8318 22.1168 95.0333 22.1168 104.077 24.6575C109.078 26.0773 113.005 30.2086 114.333 35.4501V35.4501ZM53.2479 83.4991L84.9997 64.8175L53.2479 46.136V83.4991Z" fill="#FF2002"/>
</svg>
