<svg width="269" height="442" viewBox="0 0 269 442" fill="none" xmlns="http://www.w3.org/2000/svg">
<g clip-path="url(#clip0_57_3027)">
<path d="M5.65809 375.571C5.65809 375.571 19.2008 391.647 43.6269 382.038C43.6269 382.038 29.6938 369.669 5.65809 375.571Z" fill="#38051C"/>
<path d="M63.027 383.17C63.027 383.17 76.2055 398.396 100.071 385.331C100.071 385.331 83.8727 374.094 63.027 383.17Z" fill="#38051C"/>
<path d="M86.858 424.082C86.858 424.082 94.5267 430.548 94.5533 431.585C94.569 432.622 84.9489 431.984 80.2404 431.884C75.5217 431.772 71.2212 427.106 71.2212 427.106L69.7279 430.867L65.2968 428.624L69.5497 413.02L76.7613 412.765L86.8573 424.093L86.858 424.082Z" fill="#38051C"/>
<path d="M69.5502 413.009C69.5502 413.009 74.2736 423.119 78.6487 424.268C83.0237 425.417 86.8789 424.094 86.8789 424.094C86.8789 424.094 83.4136 420.414 82.7314 417.55C82.2941 415.715 97.099 329.533 92.9131 322.9C88.1595 315.361 75.137 342.065 75.137 342.065C75.137 342.065 70.4416 396.609 69.5508 412.998L69.5502 413.009Z" fill="#FFC4B1"/>
<path d="M8.58113 419.515C8.58113 419.515 0.212581 425.045 0.0661907 426.062C-0.0699829 427.09 9.55899 427.575 14.2472 428.023C18.9469 428.461 23.7609 424.326 23.7609 424.326L24.8066 428.236L29.4684 426.523L27.0589 410.53L19.926 409.438L8.58113 419.515Z" fill="#38051C"/>
<path d="M27.0583 410.53C27.0583 410.53 21.1914 420.022 16.7124 420.655C12.2333 421.288 8.55814 419.525 8.55814 419.525C8.55814 419.525 12.4279 416.273 13.4384 413.508C14.0862 411.736 30.7682 325.663 35.6969 319.562C41.2948 312.627 51.1238 340.664 51.1238 340.664C51.1238 340.664 31.7366 391.179 27.0589 410.519L27.0583 410.53Z" fill="#FFC4B1"/>
<path d="M18.5749 298.753C18.5749 298.753 67.8233 315.298 107.917 288.701C107.917 288.701 95.2075 262.263 58.1134 269.355C21.02 276.436 18.5749 298.753 18.5749 298.753Z" fill="#38051C"/>
<path d="M51.5949 225.31C51.5949 225.31 20.5335 312.637 5.65865 375.571C5.65865 375.571 32.2774 374.289 43.6275 382.038L73.2819 278.144L63.0285 383.17C63.0285 383.17 91.5806 379.166 100.073 385.331C100.073 385.331 111.153 245.967 92.1656 227.676L51.6058 225.31L51.5949 225.31Z" fill="#59072D"/>
<path d="M37.0773 378.941C37.0773 378.941 61.1452 289.625 72.9804 264.051" stroke="#38051C" stroke-width="0.75" stroke-miterlimit="10"/>
<path d="M70.7836 382.358C70.7836 382.358 79.5293 289.553 77.0293 264.287" stroke="#38051C" stroke-width="0.75" stroke-miterlimit="10"/>
<path d="M152.999 164.109C152.999 164.109 152.614 155.583 147.96 154.93C147.96 154.93 145.97 161.977 152.999 164.109Z" fill="#38051C"/>
<path d="M144.533 129.741C144.533 129.741 149.927 154.674 163.222 169.95C164.243 171.121 165.873 171.543 167.339 171.051C169.881 170.207 170.847 167.102 169.207 164.978C157.32 149.632 152.449 127.128 152.449 127.128L144.522 129.74L144.533 129.741Z" fill="#59072D"/>
<path d="M107.335 109.124C112.651 125.308 129.551 134.602 146.068 130.485C210.149 114.489 230.307 129.141 230.307 129.141L212.34 74.4957L194.374 19.8505C194.374 19.8505 186.846 43.6259 125.817 68.892C110.086 75.3989 102.018 92.9393 107.335 109.124Z" fill="white"/>
<path d="M124.498 103.463C117.868 83.2884 125.829 68.8926 125.829 68.8926C110.098 75.3995 102.03 92.94 107.346 109.124C112.662 125.309 129.562 134.602 146.079 130.485C146.079 130.485 131.137 123.65 124.509 103.464L124.498 103.463Z" fill="#ADE2E7"/>
<path d="M243.672 128.997C262.437 122.81 269.045 91.6151 258.431 59.3221C247.817 27.0292 224.001 5.86624 205.235 12.0535C186.47 18.2407 179.862 49.435 190.476 81.728C201.09 114.021 224.906 135.184 243.672 128.997Z" fill="#ADE2E7"/>
<path d="M219.986 56.898L186.36 64.258C187.183 69.9426 188.539 75.811 190.481 81.7136C192.423 87.6161 194.812 93.1414 197.521 98.2056L228.937 84.1206L219.996 56.9095L219.986 56.898Z" fill="#8CCCD1"/>
<path d="M237.311 130.018C251.567 119.86 255.772 92.0205 246.321 63.286C236.87 34.5515 216.985 14.6499 199.492 14.9704" stroke="#38051C" stroke-width="0.75" stroke-miterlimit="10"/>
<path d="M232.367 67.8905C234.835 75.4046 233.301 82.6635 228.927 84.1091C224.565 85.5445 219.016 80.6199 216.547 73.1058C214.079 65.5916 215.613 58.3328 219.987 56.8871C224.349 55.4518 229.898 60.3763 232.367 67.8905Z" fill="#38051C"/>
<path d="M154.994 157.913L148.957 164.538L146.066 159.605L150.459 154.661C150.459 154.661 150.406 154.069 148.857 149.64C148.297 148.048 152.077 148.388 152.144 152.274L154.994 157.924L154.994 157.913Z" fill="#FFC4B1"/>
<path d="M158.572 148.07C158.572 148.07 154.005 150.202 154.604 151.142C155.202 152.081 157.255 151.242 157.255 151.242C157.255 151.242 155.99 153.327 156.229 153.711C156.467 154.096 158.743 152.975 158.743 152.975C158.743 152.975 157.791 154.358 157.782 155.263C157.773 156.167 162.407 154.748 163.013 153.693C163.619 152.638 161.94 150.992 161.94 150.992C161.94 150.992 162.168 150.449 161.941 149.487C161.714 148.525 160.262 148.779 160.262 148.779C160.262 148.779 160.867 148.302 160.173 147.694C159.478 147.087 158.582 148.081 158.582 148.081L158.572 148.07Z" fill="#FFC4B1"/>
<path d="M153 164.109C153 164.109 124.15 185.158 118.573 184.833C112.279 184.466 93.2933 159.612 90.0786 155.369C86.8639 151.125 85.8481 132.892 94.2776 134.343C99.8825 135.313 122.274 169.36 122.274 169.36L147.95 154.929C147.95 154.929 147.55 160.673 152.989 164.109L153 164.109Z" fill="#FEFEFE"/>
<path d="M144.223 157.034C144.223 157.034 144.539 163.18 150.01 166.257" stroke="#F0EFED" stroke-width="0.75" stroke-miterlimit="10"/>
<path d="M99.2476 166.926L99.2988 156.157C99.2988 156.157 104.567 164.958 104.805 173.378L99.2585 166.927L99.2476 166.926Z" fill="#38051C"/>
<path d="M97.8793 118.515C97.8793 118.515 102.33 127.148 101.949 134.223L86.7693 134.831L86.1464 119.008L97.8793 118.515Z" fill="#59072D"/>
<path d="M107.908 288.701C102.743 287.462 92.183 287.075 83.6937 287.582L79.4367 270.599L73.1909 288.453C49.2674 290.938 18.5658 298.752 18.5658 298.752C25.8581 245.417 58.1226 189.538 58.1226 189.538L56.4315 136.223L74.3551 133.191L94.2878 134.354C94.2878 134.354 100.43 153.182 100.62 157.009C100.811 160.825 96.5796 179.984 96.5796 179.984C102.863 198.994 107.907 288.712 107.907 288.712L107.908 288.701Z" fill="#FEFEFE"/>
<path d="M80.0527 142.856C80.0527 142.856 86.701 170.174 86.0783 178.609C85.7615 182.918 79.4487 270.599 79.4487 270.599" stroke="#38051C" stroke-width="0.75" stroke-miterlimit="10"/>
<path d="M87.3771 167.324C87.3771 167.324 84.3294 184.852 49.98 204.991C49.98 204.991 55.187 193.934 58.111 189.537L87.3656 167.334L87.3771 167.324Z" fill="#38051C"/>
<path d="M74.3558 133.181C74.3558 133.181 67.4447 140.976 73.4881 148.056L80.0517 142.856L86.7409 148.196C86.7409 148.196 92.2693 138.161 86.2566 134.104" stroke="#38051C" stroke-width="0.75" stroke-miterlimit="10"/>
<path d="M77.119 116.443L74.3455 133.191C73.7024 137.122 75.6167 140.701 78.6921 141.36C82.252 142.112 85.8274 138.68 86.2462 134.114L87.7661 118.699L77.119 116.443Z" fill="#FFC4B1"/>
<path d="M79.515 125.926C79.515 125.926 82.1608 129.656 86.5854 130.144L86.2831 133.833C86.2831 133.833 79.2275 133.094 79.5156 125.915L79.515 125.926Z" fill="#0C0A0B"/>
<path d="M98.0976 117.198C98.0922 118.037 98.044 118.863 97.9307 119.685C97.7411 121.069 97.3791 122.422 96.86 123.667C95.4929 126.945 92.9697 129.513 89.3197 130.118C85.3066 130.789 81.2981 128.581 78.93 125.129C74.6339 118.893 73.1004 106.734 80.1207 102.107C80.9023 101.585 81.7179 101.229 82.559 100.995C86.519 99.9286 90.8446 101.925 93.7181 105.113C96.5915 108.301 98.0945 112.771 98.0982 117.187L98.0976 117.198Z" fill="#FFC4B1"/>
<path d="M76.4862 121.116C76.4862 121.116 82.3607 127.357 82.3882 135.285L65.5434 135.686C65.5434 135.686 64.0917 109.621 68.9953 101.338C70.5414 98.724 74.6096 95.4289 80.6555 94.4405C85.1402 93.71 88.2947 94.3193 90.6107 98.2921C90.6107 98.2921 93.3519 96.4677 95.0166 96.8592C97.3152 97.3967 99.3934 105.444 97.0954 111.056C97.0954 111.056 95.4709 105.869 91.5464 103.155C91.5464 103.155 88.6419 111.696 80.2059 112.785C80.2059 112.785 80.8086 116.636 77.5252 117.677C77.5252 117.677 77.8282 115.656 76.2425 114.843L76.4869 121.105L76.4862 121.116Z" fill="#59072D"/>
<path d="M89.5303 116.251C89.5656 116.765 89.1809 117.201 88.6672 117.236C88.1534 117.272 87.7186 116.887 87.6833 116.372C87.648 115.858 88.0327 115.422 88.5464 115.387C89.0602 115.351 89.495 115.737 89.5303 116.251Z" fill="#0C0A0B"/>
<path d="M95.1592 115.871C95.1945 116.385 94.8098 116.821 94.2961 116.856C93.7823 116.891 93.3475 116.506 93.3122 115.992C93.2769 115.477 93.6616 115.042 94.1753 115.007C94.6891 114.971 95.1239 115.356 95.1592 115.871Z" fill="#0C0A0B"/>
<path d="M88.1632 121.404C88.366 122.594 87.1742 123.8 85.513 124.095C83.8517 124.391 82.3368 123.67 82.134 122.481C81.9312 121.292 83.123 120.086 84.7842 119.79C86.4455 119.494 87.9604 120.215 88.1632 121.404Z" fill="#F2727C"/>
<path d="M97.919 119.684C97.7293 121.069 97.3673 122.421 96.8483 123.667C95.7924 123.103 95.162 122.151 95.357 121.236C95.5545 120.277 96.6354 119.664 97.919 119.684Z" fill="#F2727C"/>
<path d="M78.0063 120.06C74.8213 123.145 71.8576 120.759 71.6397 118.522C71.4967 117.052 71.9817 115.271 73.2407 114.592C74.4998 113.913 76.4339 114.353 77.1276 115.713L78.0063 120.06Z" fill="#FFC4B1"/>
<path d="M76.1579 120.584C75.5579 120.604 74.9151 120.425 74.4043 120.035C73.8821 119.656 73.4708 119.054 73.3933 118.33C73.3151 117.616 73.6742 116.874 74.2299 116.492C74.7761 116.088 75.4456 115.996 76.0386 116.096C75.4713 116.303 74.9857 116.602 74.6482 116.975C74.3107 117.347 74.1539 117.796 74.2032 118.257C74.2423 118.706 74.4767 119.167 74.8241 119.558C75.1823 119.949 75.6305 120.292 76.1579 120.584Z" fill="#0C0A0B"/>
<path d="M89.2384 123.321L93.9531 123.127C93.9531 123.127 93.1963 128.261 91.794 128.223C90.3924 128.174 89.2384 123.321 89.2384 123.321Z" fill="#FEFEFE"/>
<path d="M74.0979 100.829C76.0554 99.1874 74.7151 93.0474 72.4876 91.4783C69.6746 89.4935 60.2821 86.4488 58.8808 96.8445C57.9027 104.092 67.9171 105.996 74.1081 100.84L74.0979 100.829Z" fill="#59072D"/>
<path d="M91.1715 117.601C91.6388 117.432 92.1636 117.397 92.6757 117.579C92.9317 117.671 93.1833 117.838 93.3871 118.079C93.5909 118.32 93.6817 118.63 93.7188 118.927C93.7445 119.234 93.6591 119.578 93.4913 119.841C93.3017 120.102 93.0624 120.285 92.8064 120.379C92.3143 120.601 91.7914 120.603 91.3067 120.51C91.7542 120.307 92.1595 120.079 92.4787 119.836C92.8099 119.572 92.9337 119.318 92.8978 118.999C92.874 118.66 92.7156 118.389 92.3912 118.163C92.0552 117.947 91.6306 117.758 91.16 117.611L91.1715 117.601Z" fill="#0C0A0B"/>
<path d="M87.0133 113.085C86.9576 112.547 89.7033 111.965 89.9099 112.719C90.1055 113.472 87.121 114.04 87.0133 113.085Z" fill="#59072D"/>
<path d="M92.6462 112.857C92.5904 112.319 95.3362 111.738 95.5427 112.492C95.7384 113.245 92.7538 113.812 92.6462 112.857Z" fill="#59072D"/>
<path d="M92.4602 131.326C92.3795 130.656 91.8655 130.135 91.1953 130.053C90.8494 130.011 90.4147 129.996 89.8581 130.018C89.3016 130.04 88.8638 130.08 88.523 130.137C87.863 130.251 87.3731 130.811 87.3446 131.485C87.1787 134.703 86.6226 145.355 86.6593 146.218C86.6866 147.245 88.4435 148.296 88.4435 148.296L90.4284 148.237L92.4134 148.179C92.4134 148.179 94.0922 147.023 94.065 145.996C94.0397 145.123 92.8279 134.542 92.4704 131.337L92.4602 131.326Z" fill="#F44743"/>
<path d="M90.3718 146.609C91.4625 146.575 92.3698 147.445 92.3824 148.536L92.6134 165.852C92.6259 166.758 91.9184 167.502 91.0133 167.525C90.1083 167.549 89.3542 166.851 89.3085 165.954L88.4776 148.657C88.4216 147.564 89.281 146.644 90.3718 146.609Z" fill="#0C0A0B"/>
<path d="M92.6122 165.435L89.3086 165.538L89.3217 165.962L92.6254 165.859L92.6122 165.435Z" fill="#FEFEFE"/>
<path d="M92.5693 164.312L89.2656 164.415L89.2788 164.84L92.5824 164.737L92.5693 164.312Z" fill="#FEFEFE"/>
<path d="M81.2388 159.105C81.2388 159.105 88.5186 163.28 87.3892 167.335C87.3892 167.335 79.222 167.175 81.2388 159.105Z" fill="#38051C"/>
<path d="M83.9452 158.609C83.9452 158.609 84.905 156.713 85.0824 156.473C85.2705 156.233 85.9801 154.148 86.7739 153.606C87.5676 153.064 92.2834 150.613 92.8802 150.648C93.477 150.683 94.0382 151.141 93.9171 151.722C93.7961 152.304 93.257 152.959 93.257 152.959C93.257 152.959 93.845 153.332 93.8145 153.668C93.7949 154.005 93.7702 154.428 93.7702 154.428C93.7702 154.428 94.4815 155.113 94.2148 155.392C93.5895 156.031 93.9465 156.445 94.1803 156.916C95.0267 158.645 90.7572 162.964 87.6539 162.783L82.4429 168.497L79.5515 163.564L83.9446 158.62L83.9452 158.609Z" fill="#FFC4B1"/>
<path d="M56.4322 136.223C48.8228 136.205 21.142 196.004 36.2913 201.336C45.8289 204.694 87.3779 167.335 87.3779 167.335C87.3779 167.335 80.0071 163.601 81.2275 159.104L49.0099 180.774C49.0099 180.774 76.0918 136.28 56.4213 136.223L56.4322 136.223Z" fill="#FEFEFE"/>
<path d="M76.9316 161.994C76.9316 161.994 77.4873 167.586 83.3497 170.861" stroke="#F0EFED" stroke-width="0.75" stroke-miterlimit="10"/>
<path d="M59.0249 174.043L81.2361 159.105" stroke="#38051C" stroke-width="0.75" stroke-miterlimit="10"/>
<path d="M57.3716 165.824C57.3716 165.824 67.7621 148.964 64.1237 141.905" stroke="#38051C" stroke-width="0.75" stroke-miterlimit="10"/>
<path d="M52.2564 224.029L70.7954 224.445L69.7083 243.08C69.5239 246.242 60.7043 250.732 59.0103 250.469C57.3162 250.207 52.1696 246.232 51.1008 243.837C50.0321 241.441 52.2558 224.04 52.2558 224.04L52.2564 224.029Z" stroke="#F0EFED" stroke-width="0.75" stroke-miterlimit="10"/>
<path d="M51.6106 229.661L70.4693 230.009" stroke="#F0EFED" stroke-width="0.75" stroke-miterlimit="10"/>
<path d="M105.225 249.219C103.483 250.698 101.121 251.432 100.398 251.336C98.7017 251.106 93.4843 247.225 92.3715 244.838C91.258 242.462 93.1683 225.02 93.1683 225.02L103.15 225.057" stroke="#F0EFED" stroke-width="0.75" stroke-miterlimit="10"/>
<path d="M92.6208 230.669L103.672 230.67" stroke="#F0EFED" stroke-width="0.75" stroke-miterlimit="10"/>
<path d="M7.66369 367.293C7.66369 367.293 28.9116 364.76 45.872 374.134" stroke="white" stroke-width="0.75" stroke-miterlimit="10"/>
<path d="M63.8935 374.269C63.8935 374.269 82.1504 370.003 100.699 376.417" stroke="white" stroke-width="0.75" stroke-miterlimit="10"/>
<path d="M82.3087 282.018C90.4751 281.818 98.9966 282.065 107.575 283.012" stroke="#38051C" stroke-width="0.75" stroke-miterlimit="10"/>
<path d="M19.6425 291.87C19.6425 291.87 43.9054 284.127 74.9311 282.329" stroke="#38051C" stroke-width="0.75" stroke-miterlimit="10"/>
<path d="M122.286 169.36L119.866 171.826" stroke="#38051C" stroke-width="0.75" stroke-miterlimit="10"/>
</g>
<defs>
<clipPath id="clip0_57_3027">
<rect width="243.522" height="427.918" fill="white" transform="translate(24.9219) rotate(3.33878)"/>
</clipPath>
</defs>
</svg>
