<?xml version="1.0" encoding="utf-8"?>
<!-- Generator: $$$/GeneralStr/196=Adobe Illustrator 27.6.0, SVG Export Plug-In . SVG Version: 6.00 Build 0)  -->
<svg version="1.1" id="圖層_1" xmlns="http://www.w3.org/2000/svg" xmlns:xlink="http://www.w3.org/1999/xlink" x="0px" y="0px"
	 viewBox="0 0 160.1 124.6" style="enable-background:new 0 0 160.1 124.6;" xml:space="preserve">
<style type="text/css">
	.st0{fill:#FFFFFF;}
	.st1{fill:#ABDBE0;}
	.st2{fill:#8AC5CA;}
	.st3{fill:none;stroke:#37031B;stroke-width:0.75;stroke-miterlimit:10;}
	.st4{fill:#37031B;}
</style>
<g>
	<path class="st0" d="M1.6,100.2c5.3,16.2,22.2,25.5,38.7,21.4c64.1-16,84.2-1.3,84.2-1.3l-18-54.6l-18-54.6c0,0-7.5,23.8-68.6,49
		C4.4,66.5-3.7,84,1.6,100.2z"/>
	<path class="st1" d="M18.8,94.5C12.2,74.4,20.1,60,20.1,60C4.4,66.5-3.7,84,1.6,100.2c5.3,16.2,22.2,25.5,38.7,21.4
		C40.4,121.6,25.4,114.7,18.8,94.5L18.8,94.5z"/>
	<path class="st1" d="M138,120.1c18.8-6.2,25.4-37.4,14.8-69.7C142.1,18.1,118.3-3.1,99.5,3.1C80.8,9.3,74.2,40.5,84.8,72.8
		S119.2,126.3,138,120.1z"/>
	<path class="st2" d="M114.3,48l-33.6,7.4c0.8,5.7,2.2,11.6,4.1,17.5c1.9,5.9,4.3,11.4,7,16.5l31.4-14.1L114.3,48L114.3,48z"/>
	<path class="st3" d="M131.6,121.1c14.3-10.2,18.5-38,9-66.7S111.3,5.7,93.8,6"/>
	<path class="st4" d="M126.7,59c2.5,7.5,0.9,14.8-3.4,16.2c-4.4,1.4-9.9-3.5-12.4-11c-2.5-7.5-0.9-14.8,3.4-16.2
		C118.6,46.5,124.2,51.5,126.7,59z"/>
</g>
</svg>
