<?xml version="1.0" encoding="utf-8"?>
<!-- Generator: $$$/GeneralStr/196=Adobe Illustrator 27.6.0, SVG Export Plug-In . SVG Version: 6.00 Build 0)  -->
<svg version="1.1" id="圖層_1" xmlns="http://www.w3.org/2000/svg" xmlns:xlink="http://www.w3.org/1999/xlink" x="0px" y="0px"
	 viewBox="0 0 269 442" style="enable-background:new 0 0 269 442;" xml:space="preserve">
<style type="text/css">
	.st0{clip-path:url(#SVGID_00000181787383607767089980000001995364443500732583_);}
	.st1{fill:#38051C;}
	.st2{fill:#FFC4B1;}
	.st3{fill:#59072D;}
	.st4{fill:none;stroke:#38051C;stroke-width:0.75;stroke-miterlimit:10;}
	.st5{fill:#FEFEFE;}
	.st6{fill:none;stroke:#F0EFED;stroke-width:0.75;stroke-miterlimit:10;}
	.st7{fill:#0C0A0B;}
	.st8{fill:#F2727C;}
	.st9{fill:#F44743;}
	.st10{fill:none;stroke:#FFFFFF;stroke-width:0.75;stroke-miterlimit:10;}
</style>
<g>
	<g>
		<defs>
			
				<rect id="SVGID_1_" x="-80" y="98.9" transform="matrix(5.823988e-02 -0.9983 0.9983 5.823988e-02 -94.0995 341.5522)" width="427.9" height="243.5"/>
		</defs>
		<clipPath id="SVGID_00000165200323602056856950000007054453839298951846_">
			<use xlink:href="#SVGID_1_"  style="overflow:visible;"/>
		</clipPath>
		<g style="clip-path:url(#SVGID_00000165200323602056856950000007054453839298951846_);">
			<path class="st1" d="M5.7,375.6c0,0,13.5,16.1,38,6.5C43.6,382,29.7,369.7,5.7,375.6z"/>
			<path class="st1" d="M63,383.2c0,0,13.2,15.2,37,2.2C100.1,385.3,83.9,374.1,63,383.2z"/>
			<path class="st1" d="M86.9,424.1c0,0,7.7,6.5,7.7,7.5s-9.6,0.4-14.3,0.3c-4.7-0.1-9-4.8-9-4.8l-1.5,3.8l-4.4-2.2l4.3-15.6
				l7.2-0.3L86.9,424.1L86.9,424.1z"/>
			<path class="st2" d="M69.6,413c0,0,4.7,10.1,9.1,11.3c4.4,1.1,8.2-0.2,8.2-0.2s-3.5-3.7-4.1-6.5c-0.4-1.8,14.4-88,10.2-94.6
				c-4.8-7.5-17.8,19.2-17.8,19.2S70.4,396.6,69.6,413L69.6,413z"/>
			<path class="st1" d="M8.6,419.5c0,0-8.4,5.5-8.5,6.5c-0.1,1,9.5,1.5,14.2,2c4.7,0.4,9.5-3.7,9.5-3.7l1,3.9l4.7-1.7l-2.4-16
				l-7.1-1.1L8.6,419.5z"/>
			<path class="st2" d="M27.1,410.5c0,0-5.9,9.5-10.3,10.1c-4.5,0.6-8.2-1.1-8.2-1.1s3.9-3.3,4.9-6c0.6-1.8,17.3-87.8,22.3-93.9
				c5.6-6.9,15.4,21.1,15.4,21.1S31.7,391.2,27.1,410.5L27.1,410.5z"/>
			<path class="st1" d="M18.6,298.8c0,0,49.2,16.5,89.3-10.1c0,0-12.7-26.4-49.8-19.3C21,276.4,18.6,298.8,18.6,298.8z"/>
			<path class="st3" d="M51.6,225.3c0,0-31.1,87.3-45.9,150.3c0,0,26.6-1.3,38,6.5l29.7-103.9L63,383.2c0,0,28.6-4,37,2.2
				c0,0,11.1-139.4-7.9-157.7L51.6,225.3L51.6,225.3z"/>
			<path class="st4" d="M37.1,378.9c0,0,24.1-89.3,35.9-114.9"/>
			<path class="st4" d="M70.8,382.4c0,0,8.7-92.8,6.2-118.1"/>
			<path class="st1" d="M153,164.1c0,0-0.4-8.5-5-9.2C148,154.9,146,162,153,164.1z"/>
			<path class="st3" d="M140.5,121.2c0,0,9.4,33.4,22.7,48.7c1,1.2,2.7,1.6,4.1,1.1c2.5-0.8,3.5-3.9,1.9-6.1
				c-11.9-15.3-21.2-46-21.2-46L140.5,121.2z"/>
			<path class="st2" d="M155,157.9l-6,6.6l-2.9-4.9l4.4-4.9c0,0-0.1-0.6-1.6-5c-0.6-1.6,3.2-1.3,3.3,2.6L155,157.9L155,157.9z"/>
			<path class="st2" d="M158.6,148.1c0,0-4.6,2.1-4,3.1c0.6,0.9,2.7,0.1,2.7,0.1s-1.3,2.1-1,2.5c0.2,0.4,2.5-0.7,2.5-0.7
				s-1,1.4-1,2.3c0,0.9,4.6-0.5,5.2-1.6c0.6-1.1-1.1-2.7-1.1-2.7s0.2-0.5,0-1.5s-1.7-0.7-1.7-0.7s0.6-0.5-0.1-1.1
				C159.5,147.1,158.6,148.1,158.6,148.1L158.6,148.1z"/>
			<path class="st5" d="M153,164.1c0,0-28.8,21-34.4,20.7c-6.3-0.4-25.3-25.2-28.5-29.5c-3.2-4.2-4.2-22.5,4.2-21c5.6,1,28,35,28,35
				l25.7-14.4C147.9,154.9,147.6,160.7,153,164.1L153,164.1z"/>
			<path class="st6" d="M144.2,157c0,0,0.3,6.1,5.8,9.2"/>
			<path class="st1" d="M99.2,166.9l0.1-10.8c0,0,5.3,8.8,5.5,17.2L99.2,166.9L99.2,166.9z"/>
			<path class="st3" d="M97.9,118.5c0,0,4.5,8.6,4.1,15.7l-15.2,0.6L86.1,119L97.9,118.5z"/>
			<path class="st5" d="M107.9,288.7c-5.2-1.2-15.7-1.6-24.2-1.1l-4.3-17l-6.2,17.9c-23.9,2.5-54.6,10.3-54.6,10.3
				c7.3-53.3,39.6-109.2,39.6-109.2l-1.7-53.3l17.9-3l19.9,1.2c0,0,6.1,18.8,6.3,22.7c0.2,3.8-4,23-4,23
				C102.9,199,107.9,288.7,107.9,288.7L107.9,288.7z"/>
			<path class="st4" d="M80.1,142.9c0,0,6.6,27.3,6,35.8c-0.3,4.3-6.6,92-6.6,92"/>
			<path class="st1" d="M87.4,167.3c0,0-3,17.5-37.4,37.7c0,0,5.2-11.1,8.1-15.5L87.4,167.3L87.4,167.3z"/>
			<path class="st4" d="M74.4,133.2c0,0-6.9,7.8-0.9,14.9l6.6-5.2l6.7,5.3c0,0,5.5-10-0.5-14.1"/>
			<path class="st2" d="M77.1,116.4l-2.8,16.7c-0.6,3.9,1.3,7.5,4.3,8.2c3.6,0.8,7.1-2.7,7.6-7.2l1.5-15.4L77.1,116.4z"/>
			<path class="st7" d="M79.5,125.9c0,0,2.6,3.7,7.1,4.2l-0.3,3.7C86.3,133.8,79.2,133.1,79.5,125.9L79.5,125.9z"/>
			<path class="st2" d="M98.1,117.2c0,0.8-0.1,1.7-0.2,2.5c-0.2,1.4-0.6,2.7-1.1,4c-1.4,3.3-3.9,5.8-7.5,6.5c-4,0.7-8-1.5-10.4-5
				c-4.3-6.2-5.8-18.4,1.2-23c0.8-0.5,1.6-0.9,2.4-1.1c4-1.1,8.3,0.9,11.2,4.1C96.6,108.3,98.1,112.8,98.1,117.2L98.1,117.2z"/>
			<path class="st3" d="M76.5,121.1c0,0,5.9,6.2,5.9,14.2l-16.8,0.4c0,0-1.5-26.1,3.5-34.3c1.5-2.6,5.6-5.9,11.7-6.9
				c4.5-0.7,7.6-0.1,10,3.9c0,0,2.7-1.8,4.4-1.4c2.3,0.5,4.4,8.6,2.1,14.2c0,0-1.6-5.2-5.5-7.9c0,0-2.9,8.5-11.3,9.6
				c0,0,0.6,3.9-2.7,4.9c0,0,0.3-2-1.3-2.8V121.1L76.5,121.1z"/>
			<path class="st7" d="M89.5,116.3c0,0.5-0.3,0.9-0.9,1c-0.5,0-0.9-0.3-1-0.9c0-0.5,0.3-1,0.9-1S89.5,115.7,89.5,116.3z"/>
			<path class="st7" d="M95.2,115.9c0,0.5-0.3,0.9-0.9,1c-0.5,0-0.9-0.4-1-0.9c0-0.5,0.3-0.9,0.9-1C94.7,115,95.1,115.4,95.2,115.9z
				"/>
			<path class="st8" d="M88.2,121.4c0.2,1.2-1,2.4-2.7,2.7c-1.7,0.3-3.2-0.4-3.4-1.6c-0.2-1.2,1-2.4,2.7-2.7
				C86.4,119.5,88,120.2,88.2,121.4z"/>
			<path class="st8" d="M97.9,119.7c-0.2,1.4-0.6,2.7-1.1,4c-1.1-0.6-1.7-1.5-1.5-2.4C95.6,120.3,96.6,119.7,97.9,119.7z"/>
			<path class="st2" d="M78,120.1c-3.2,3.1-6.1,0.7-6.4-1.5c-0.1-1.5,0.3-3.3,1.6-3.9c1.3-0.7,3.2-0.2,3.9,1.1L78,120.1z"/>
			<path class="st7" d="M76.2,120.6c-0.6,0-1.2-0.2-1.8-0.5c-0.5-0.4-0.9-1-1-1.7s0.3-1.5,0.8-1.8c0.5-0.4,1.2-0.5,1.8-0.4
				c-0.6,0.2-1.1,0.5-1.4,0.9s-0.5,0.8-0.4,1.3c0,0.4,0.3,0.9,0.6,1.3C75.2,119.9,75.6,120.3,76.2,120.6z"/>
			<path class="st5" d="M89.2,123.3l4.7-0.2c0,0-0.8,5.1-2.2,5.1C90.4,128.2,89.2,123.3,89.2,123.3z"/>
			<path class="st3" d="M74.1,100.8c2-1.6,0.6-7.8-1.6-9.4c-2.8-2-12.2-5-13.6,5.4C57.9,104.1,67.9,106,74.1,100.8L74.1,100.8z"/>
			<path class="st7" d="M91.2,117.6c0.5-0.2,1-0.2,1.5,0c0.3,0.1,0.5,0.3,0.7,0.5s0.3,0.6,0.3,0.8c0,0.3-0.1,0.7-0.2,0.9
				c-0.2,0.3-0.4,0.4-0.7,0.5c-0.5,0.2-1,0.2-1.5,0.1c0.4-0.2,0.9-0.4,1.2-0.7c0.3-0.3,0.5-0.5,0.4-0.8c0-0.3-0.2-0.6-0.5-0.8
				C92.1,117.9,91.6,117.8,91.2,117.6L91.2,117.6z"/>
			<path class="st3" d="M87,113.1c-0.1-0.5,2.7-1.1,2.9-0.4C90.1,113.5,87.1,114,87,113.1z"/>
			<path class="st3" d="M92.6,112.9c-0.1-0.5,2.7-1.1,2.9-0.4C95.7,113.2,92.8,113.8,92.6,112.9z"/>
			<path class="st9" d="M92.5,131.3c-0.1-0.7-0.6-1.2-1.3-1.3c-0.3,0-0.8-0.1-1.3,0c-0.6,0-1,0.1-1.3,0.1c-0.7,0.1-1.1,0.7-1.2,1.3
				c-0.2,3.2-0.7,13.9-0.7,14.7c0,1,1.8,2.1,1.8,2.1l2-0.1l2-0.1c0,0,1.7-1.2,1.7-2.2C94,145.1,92.8,134.5,92.5,131.3L92.5,131.3z"
				/>
			<path class="st7" d="M90.4,146.6c1.1,0,2,0.8,2,1.9l0.2,17.3c0,0.9-0.7,1.6-1.6,1.7c-0.9,0-1.7-0.7-1.7-1.6l-0.8-17.3
				C88.4,147.6,89.3,146.6,90.4,146.6z"/>
			<path class="st5" d="M92.6,165.4l-3.3,0.1v0.4l3.3-0.1V165.4z"/>
			<path class="st5" d="M92.6,164.3l-3.3,0.1v0.4l3.3-0.1V164.3z"/>
			<path class="st1" d="M81.2,159.1c0,0,7.3,4.2,6.2,8.2C87.4,167.3,79.2,167.2,81.2,159.1z"/>
			<path class="st2" d="M83.9,158.6c0,0,1-1.9,1.1-2.1c0.2-0.2,0.9-2.3,1.7-2.9c0.8-0.5,5.5-3,6.1-3s1.2,0.5,1,1.1
				c-0.1,0.6-0.7,1.2-0.7,1.2s0.6,0.4,0.6,0.7s0,0.8,0,0.8s0.7,0.7,0.4,1c-0.6,0.6-0.3,1.1,0,1.5c0.8,1.7-3.4,6-6.5,5.9l-5.2,5.7
				l-2.9-4.9L83.9,158.6L83.9,158.6z"/>
			<path class="st5" d="M56.4,136.2c-7.6,0-35.3,59.8-20.1,65.1c9.5,3.4,51.1-34,51.1-34s-7.4-3.7-6.2-8.2L49,180.8
				C49,180.8,76.1,136.3,56.4,136.2L56.4,136.2z"/>
			<path class="st6" d="M76.9,162c0,0,0.6,5.6,6.4,8.9"/>
			<path class="st4" d="M59,174l22.2-14.9"/>
			<path class="st4" d="M57.4,165.8c0,0,10.4-16.9,6.8-23.9"/>
			<path class="st6" d="M52.3,224l18.5,0.4L69.7,243c-0.2,3.2-9,7.7-10.7,7.4s-6.8-4.2-7.9-6.6C50,241.4,52.3,224,52.3,224L52.3,224
				z"/>
			<path class="st6" d="M51.6,229.7l18.9,0.3"/>
			<path class="st6" d="M105.2,249.2c-1.7,1.5-4.1,2.2-4.8,2.1c-1.7-0.2-6.9-4.1-8-6.5s0.8-19.8,0.8-19.8h10"/>
			<path class="st6" d="M92.6,230.7h11.1"/>
			<path class="st10" d="M7.7,367.3c0,0,21.2-2.5,38.2,6.8"/>
			<path class="st10" d="M63.9,374.3c0,0,18.3-4.3,36.8,2.1"/>
			<path class="st4" d="M82.3,282c8.2-0.2,16.7,0,25.3,1"/>
			<path class="st4" d="M19.6,291.9c0,0,24.3-7.7,55.3-9.5"/>
			<path class="st4" d="M122.3,169.4l-2.4,2.5"/>
		</g>
	</g>
</g>
</svg>
