<svg width="1920" height="1159" viewBox="0 0 1920 1159" fill="none" xmlns="http://www.w3.org/2000/svg">
<g clip-path="url(#clip0_57_3021)">
<rect width="1920" height="1159" fill="#F8FCFD"/>
<path opacity="0.7" d="M1556.8 1051.63C1508.04 1060.28 1452.05 1039.56 1411.15 1017.77C1309.69 963.714 1213.37 881.019 1098.97 884.07C979.2 887.262 879.343 983.525 767.26 1031.8C637.479 1087.68 484.744 1013.22 504.545 844.648C515.881 748.196 587.688 676.63 634.77 598.136C660.359 555.493 681.949 507.998 688.146 457.575C695.333 398.904 668.374 354.815 663.175 301.118C657.682 244.267 668.343 179.18 711.297 144.032C758.383 105.515 825.914 117.699 877.129 146.673C928.344 175.647 971.97 219.041 1025.64 242.584C1091.6 271.527 1167.09 267.743 1237.63 250.96C1308.18 234.176 1375.87 205.056 1445.49 183.939C1484.81 172.007 1525.38 162.545 1565.86 165.038C1606.34 167.53 1647.09 183.112 1674.14 214.936C1691.34 235.136 1702.14 260.726 1710.34 286.781C1731.3 353.406 1695.17 433.093 1653.95 486.064C1640.16 503.789 1623.91 519.263 1610.47 537.3C1566.63 596.238 1565.97 643.275 1603.07 703.808C1632.27 751.466 1660.15 788.228 1665.66 848.273C1673.12 929.65 1642.57 1036.39 1556.81 1051.6L1556.8 1051.63Z" fill="#E9F1F3"/>
<path opacity="0.7" d="M223.1 -680.201C249.775 -630.595 249.257 -562.412 242.115 -510.157C224.389 -380.532 175.673 -245.969 220.734 -123.28C267.909 5.17087 402.372 77.9503 492.545 181.555C596.941 301.525 577.288 494.12 398.701 534.491C296.516 557.583 197.442 506.108 100.396 483.93C47.6709 471.869 -8.51827 465.915 -62.0386 477.694C-124.303 491.426 -159.224 536.766 -211.891 562.078C-267.656 588.866 -337.717 601.19 -389.193 567.588C-445.61 530.749 -457.998 453.197 -447.336 387.148C-436.674 321.098 -408.573 257.975 -404.332 191.257C-399.11 109.259 -430.644 28.951 -473.577 -41.2415C-516.509 -111.434 -570.936 -174.023 -617.935 -241.631C-644.482 -279.803 -668.98 -320.246 -681.294 -364.967C-693.608 -409.688 -692.719 -459.502 -670.297 -500.448C-656.075 -526.463 -634.031 -547.541 -610.559 -565.968C-550.533 -613.075 -456.29 -603.183 -387.335 -577.996C-364.265 -569.574 -342.576 -557.656 -319.315 -549.724C-243.332 -523.88 -195.288 -540.419 -147.373 -602.759C-109.649 -651.838 -82.5103 -695.48 -23.5069 -723.462C56.4633 -761.368 176.153 -767.439 223.07 -680.196L223.1 -680.201Z" fill="#E9F1F3"/>
</g>
<defs>
<clipPath id="clip0_57_3021">
<rect width="1920" height="1159" fill="white"/>
</clipPath>
</defs>
</svg>
